<?xml version="1.0" encoding="iso-8859-1"?>
<!-- Generator: Adobe Illustrator 19.0.0, SVG Export Plug-In . SVG Version: 6.00 Build 0)  -->
<svg xmlns="http://www.w3.org/2000/svg" xmlns:xlink="http://www.w3.org/1999/xlink" version="1.1" id="Layer_1" x="0px"
     y="0px" viewBox="0 0 512 512" style="enable-background:new 0 0 512 512;" xml:space="preserve" width="512"
     height="298">
<g id="XMLID_1925_">
	<g id="XMLID_1924_">
		<path id="XMLID_1953_" style="fill:#FEC007;"
              d="M377.879,303.882c0,67.919-55.552,122.857-123.699,121.866    c-65.789-0.961-119.349-54.749-120.052-120.538c-0.297-28.162,8.948-54.145,24.714-74.915    c22.237-29.322,35.932-64.094,38.756-100.541c0.367-4.657,0.545-9.344,0.545-14.051V86.876h115.722v27.132    c0,5.262,0.208,10.514,0.634,15.746c2.903,36.11,15.796,70.912,38.032,99.719C368.425,250.054,377.879,275.868,377.879,303.882z"/>
        <path id="XMLID_1939_" style="fill:#FE9700;"
              d="M314.498,129.754H197.597c0.367-4.657,0.545-9.344,0.545-14.051V86.876h115.722    v27.132C313.864,119.27,314.072,124.522,314.498,129.754z"/>
        <path id="XMLID_1969_" style="fill:#FE9700;"
              d="M377.879,303.882c0,51.826-32.344,96.092-77.957,113.72    c37.616-20.74,63.093-60.784,63.093-106.784c0-28.014-9.454-53.828-25.348-74.41C312.209,203.43,299,162.613,299,120.944V86.876    h14.864v27.132c0,41.669,13.209,82.486,38.667,115.464C368.425,250.054,377.879,275.868,377.879,303.882z"/>
        <path id="XMLID_1913_" style="fill:#FE9700;"
              d="M227.571,238.444c-4.204,0-7.611-3.407-7.611-7.611V86.876    c0-4.204,3.407-7.612,7.611-7.612c4.204,0,7.612,3.407,7.612,7.612v143.957C235.182,235.036,231.775,238.444,227.571,238.444z"/>
        <path id="XMLID_1914_" style="fill:#FE9700;"
              d="M284.052,238.444c-4.204,0-7.611-3.407-7.611-7.611V86.876    c0-4.204,3.407-7.612,7.611-7.612c4.204,0,7.612,3.407,7.612,7.612v143.957C291.663,235.036,288.256,238.444,284.052,238.444z"/>
        <path id="XMLID_695_" style="fill:#FE9700;"
              d="M284.052,210.094c-1.947,0-3.896-0.743-5.383-2.229    c-7.179-7.182-16.948-0.166-18.039,0.658c-3.029,2.292-7.325,2.029-10.013-0.659c-6.81-6.811-18.345,0.638-18.834,0.957    c-3.499,2.299-8.219,1.351-10.536-2.138c-2.318-3.489-1.398-8.183,2.078-10.519c6.72-4.514,21.213-10.011,33.131-2.919    c8.596-4.411,22.066-7.056,32.977,3.854c2.972,2.973,2.972,7.792,0,10.765C287.948,209.351,285.999,210.094,284.052,210.094z"/>
        <path id="XMLID_1949_" style="fill:#76C2E0;"
              d="M316.668,114.89H194.961c-5.817,0-10.068-5.49-8.611-11.118l3.022-11.673    l17.936-69.306l4.172-16.123C212.491,2.745,216.029,0,220.082,0h71.457c4.053,0,7.591,2.745,8.611,6.669l4.172,16.123    l17.926,69.306l3.022,11.673C326.727,109.4,322.475,114.89,316.668,114.89z"/>
        <polygon id="XMLID_1936_" style="fill:#2796AF;"
                 points="322.247,92.098 189.372,92.098 207.308,22.792 304.321,22.792   "/>
        <path id="XMLID_1917_" style="fill:#CAEDFF;"
              d="M323.333,77.234H188.29c-5.349,0-9.686-4.336-9.686-9.686V47.341    c0-5.349,4.336-9.686,9.686-9.686h135.044c5.349,0,9.686,4.336,9.686,9.686v20.207C333.019,72.897,328.683,77.234,323.333,77.234z    "/>
        <path id="XMLID_1918_" style="fill:#F9DE69;"
              d="M227.575,388.135c-0.694,0-1.398-0.095-2.099-0.296    c-49.023-14.034-58.142-63.375-58.505-65.469c-0.721-4.142,2.053-8.082,6.194-8.803c4.134-0.727,8.071,2.045,8.8,6.177    c0.318,1.764,8.023,42.101,47.702,53.46c4.041,1.157,6.38,5.371,5.222,9.412C233.932,385.957,230.885,388.135,227.575,388.135z"/>
	</g>
    <path id="XMLID_1922_" style="fill:#F9DE69;"
          d="M256,512c-4.204,0-7.611-3.407-7.611-7.612v-43.601   c0-4.204,3.407-7.612,7.611-7.612s7.612,3.407,7.612,7.612v43.601C263.612,508.593,260.204,512,256,512z"/>
    <g id="XMLID_210_">
		<path id="XMLID_1882_" style="fill:#F9DE69;"
              d="M136.536,478.86c-1.947,0-3.896-0.743-5.382-2.229    c-2.973-2.973-2.973-7.792-0.001-10.765l30.831-30.831c2.973-2.973,7.793-2.972,10.764-0.001    c2.973,2.973,2.973,7.792,0.001,10.765l-30.831,30.831C140.432,478.117,138.484,478.86,136.536,478.86z"/>
        <path id="XMLID_99_" style="fill:#F9DE69;"
              d="M375.464,478.86c-1.948,0-3.896-0.743-5.383-2.23L339.251,445.8    c-2.972-2.973-2.972-7.792,0.001-10.765c2.971-2.972,7.791-2.971,10.764,0.001l30.831,30.831    c2.972,2.973,2.972,7.792-0.001,10.765C379.36,478.117,377.411,478.86,375.464,478.86z"/>
	</g>
</g>















</svg>
